<svg width="19" height="19" viewBox="0 0 19 19" fill="none" xmlns="http://www.w3.org/2000/svg">
<path d="M18.9429 17.4136L12.7751 11.323C13.7322 10.1011 14.2499 8.60714 14.2499 7.03581C14.2499 5.1549 13.5066 3.39126 12.1623 2.06149C10.8181 0.731724 9.02734 0 7.12497 0C5.2226 0 3.43186 0.734069 2.08762 2.06149C0.740996 3.38892 0 5.1549 0 7.03581C0 8.91437 0.743372 10.6827 2.08762 12.0101C3.43186 13.3399 5.22023 14.0716 7.12497 14.0716C8.71621 14.0716 10.2267 13.5604 11.4641 12.6176L17.6319 18.7059C17.65 18.7237 17.6715 18.7379 17.6951 18.7476C17.7188 18.7573 17.7441 18.7622 17.7697 18.7622C17.7953 18.7622 17.8206 18.7573 17.8442 18.7476C17.8679 18.7379 17.8893 18.7237 17.9074 18.7059L18.9429 17.6857C18.961 17.6678 18.9754 17.6466 18.9852 17.6233C18.995 17.5999 19 17.5749 19 17.5497C19 17.5244 18.995 17.4994 18.9852 17.476C18.9754 17.4527 18.961 17.4315 18.9429 17.4136ZM10.887 10.7507C9.87996 11.7428 8.54521 12.2892 7.12497 12.2892C5.70473 12.2892 4.36998 11.7428 3.36299 10.7507C2.35836 9.75632 1.80499 8.43828 1.80499 7.03581C1.80499 5.63334 2.35836 4.31295 3.36299 3.3209C4.36998 2.32885 5.70473 1.78241 7.12497 1.78241C8.54521 1.78241 9.88233 2.32651 10.887 3.3209C11.8916 4.3153 12.4449 5.63334 12.4449 7.03581C12.4449 8.43828 11.8916 9.75867 10.887 10.7507Z" fill="white"/>
</svg>
