<svg width="16" height="17" viewBox="0 0 16 17" fill="none" xmlns="http://www.w3.org/2000/svg">
<g clip-path="url(#clip0_344_3139)">
<path d="M16 8.55212C16 3.82824 12.418 -0.00100708 8.00005 -0.00100708C3.58005 5.542e-05 -0.00195312 3.82824 -0.00195312 8.55318C-0.00195312 12.8212 2.92405 16.3594 6.74805 17.0011V11.0246H4.71805V8.55318H6.75005V6.66724C6.75005 4.52418 7.94505 3.34056 9.77205 3.34056C10.648 3.34056 11.563 3.50737 11.563 3.50737V5.61112H10.554C9.56105 5.61112 9.25105 6.27093 9.25105 6.94774V8.55212H11.469L11.115 11.0235H9.25005V17.0001C13.074 16.3583 16 12.8202 16 8.55212Z" fill="white"/>
</g>
<defs>
<clipPath id="clip0_344_3139">
<rect width="16" height="17" fill="white"/>
</clipPath>
</defs>
</svg>
