<svg width="16" height="17" viewBox="0 0 16 17" fill="none" xmlns="http://www.w3.org/2000/svg">
<path d="M5.026 15.9375C11.064 15.9375 14.367 10.6218 14.367 6.02013C14.367 5.87138 14.367 5.7205 14.361 5.57175C15.0041 5.07715 15.5591 4.46479 16 3.76338C15.3993 4.04478 14.7628 4.23025 14.111 4.31375C14.7975 3.87774 15.3117 3.19172 15.558 2.38319C14.913 2.7892 14.207 3.07421 13.471 3.22575C12.9762 2.66584 12.3214 2.29492 11.6081 2.17043C10.8948 2.04595 10.1627 2.17486 9.52534 2.53719C8.88796 2.89952 8.38081 3.47505 8.08245 4.17463C7.78409 4.87421 7.71118 5.65881 7.875 6.40688C6.56974 6.33734 5.29282 5.97706 4.12704 5.34942C2.96127 4.72177 1.93268 3.84078 1.108 2.76357C0.68934 3.53184 0.561574 4.44062 0.750646 5.30535C0.939718 6.17008 1.43145 6.92594 2.126 7.41944C1.60554 7.40065 1.09652 7.25216 0.64 6.98594V7.03375C0.640897 7.83858 0.903307 8.61839 1.38287 9.24137C1.86244 9.86436 2.52975 10.2923 3.272 10.4529C2.99026 10.5353 2.69923 10.5765 2.407 10.5751C2.20098 10.5757 1.99538 10.5555 1.793 10.5145C2.00279 11.2073 2.41127 11.8131 2.96125 12.2469C3.51122 12.6807 4.17513 12.9209 4.86 12.9338C3.69656 13.9047 2.2594 14.4313 0.78 14.4288C0.519321 14.4299 0.258823 14.414 0 14.3809C1.50151 15.398 3.2453 15.9381 5.026 15.9375Z" fill="white"/>
</svg>
