<svg width="17" height="17" viewBox="0 0 17 17" fill="none" xmlns="http://www.w3.org/2000/svg">
<path fill-rule="evenodd" clip-rule="evenodd" d="M14.0197 3.8354C14.6289 3.99907 15.1108 4.481 15.2745 5.09022C15.5746 6.19954 15.5837 8.50004 15.5837 8.50004C15.5837 8.50004 15.5837 10.8096 15.2836 11.9099C15.1199 12.5191 14.638 13.001 14.0288 13.1647C12.9285 13.4647 8.50033 13.4647 8.50033 13.4647C8.50033 13.4647 4.0721 13.4647 2.97187 13.1647C2.36265 13.001 1.88073 12.5191 1.71706 11.9099C1.41699 10.8005 1.41699 8.50004 1.41699 8.50004C1.41699 8.50004 1.41699 6.19954 1.70796 5.09931C1.87163 4.49009 2.35356 4.00817 2.96278 3.8445C4.06301 3.54443 8.49123 3.53534 8.49123 3.53534C8.49123 3.53534 12.9195 3.53534 14.0197 3.8354ZM10.7554 8.50004L7.08184 10.6278V6.37231L10.7554 8.50004Z" fill="white"/>
</svg>
